<svg xmlns="http://www.w3.org/2000/svg" xmlns:xlink="http://www.w3.org/1999/xlink" width="458" height="540" viewBox="0 0 458 540">
  <defs>
    <filter id="Rectangle_9" x="9" y="0" width="449" height="540" filterUnits="userSpaceOnUse">
      <feOffset dy="9" input="SourceAlpha"/>
      <feGaussianBlur stdDeviation="9" result="blur"/>
      <feFlood flood-opacity="0.212"/>
      <feComposite operator="in" in2="blur"/>
      <feComposite in="SourceGraphic"/>
    </filter>
  </defs>
  <g id="Group_8" data-name="Group 8" transform="translate(-1104.5 -238)">
    <g transform="matrix(1, 0, 0, 1, 1104.5, 238)" filter="url(#Rectangle_9)">
      <rect id="Rectangle_9-2" data-name="Rectangle 9" width="395" height="486" rx="33" transform="translate(36 18)" fill="#fff"/>
    </g>
    <g id="Group_4" data-name="Group 4" transform="translate(-1.5 105)">
      <circle id="Ellipse_1" data-name="Ellipse 1" cx="35" cy="35" r="35" transform="translate(1106 263)" fill="#1fc41f"/>
      <circle id="Ellipse_4" data-name="Ellipse 4" cx="35" cy="35" r="35" transform="translate(1106 263)" fill="#1fc41f"/>
      <circle id="Ellipse_2" data-name="Ellipse 2" cx="35" cy="35" r="35" transform="translate(1106 263)" fill="#1fc41f"/>
      <circle id="Ellipse_5" data-name="Ellipse 5" cx="35" cy="35" r="35" transform="translate(1106 263)" fill="#1fc41f"/>
      <circle id="Ellipse_3" data-name="Ellipse 3" cx="35" cy="35" r="35" transform="translate(1106 263)" fill="#1fc41f"/>
      <path id="Path_2" data-name="Path 2" d="M1170.876,318l12.647,12.647,22.548-22.548" transform="translate(-47.474 -21.373)" fill="none" stroke="#fff" stroke-width="6"/>
      <path id="Path_3" data-name="Path 3" d="M1170.876,318l12.647,12.647,22.548-22.548" transform="translate(-47.474 -21.373)" fill="none" stroke="#fff" stroke-width="6"/>
      <g id="Group_5" data-name="Group 5">
        <circle id="Ellipse_6" data-name="Ellipse 6" cx="35" cy="35" r="35" transform="translate(1106 263)" fill="#1fc41f"/>
        <path id="Path_4" data-name="Path 4" d="M1170.876,318l12.647,12.647,22.548-22.548" transform="translate(-47.474 -21.373)" fill="none" stroke="#fff" stroke-width="6"/>
      </g>
      <rect id="Rectangle_8" data-name="Rectangle 8" width="253" height="19" rx="9.5" transform="translate(1236 276)" fill="#e9d5f5"/>
      <rect id="Rectangle_24" data-name="Rectangle 24" width="253" height="19" rx="9.5" transform="translate(1236 276)" fill="#e9d5f5"/>
      <rect id="Rectangle_14" data-name="Rectangle 14" width="253" height="19" rx="9.5" transform="translate(1236 276)" fill="#e9d5f5"/>
      <rect id="Rectangle_25" data-name="Rectangle 25" width="253" height="19" rx="9.5" transform="translate(1236 276)" fill="#e9d5f5"/>
      <rect id="Rectangle_19" data-name="Rectangle 19" width="253" height="19" rx="9.5" transform="translate(1236 276)" fill="#e9d5f5"/>
      <rect id="Rectangle_26" data-name="Rectangle 26" width="253" height="19" rx="9.5" transform="translate(1236 276)" fill="#e9d5f5"/>
      <rect id="Rectangle_10" data-name="Rectangle 10" width="63" height="16" rx="8" transform="translate(1236 309)" fill="#e9d5f5"/>
      <rect id="Rectangle_15" data-name="Rectangle 15" width="63" height="16" rx="8" transform="translate(1236 309)" fill="#e9d5f5"/>
      <rect id="Rectangle_20" data-name="Rectangle 20" width="63" height="16" rx="8" transform="translate(1236 309)" fill="#e9d5f5"/>
      <rect id="Rectangle_11" data-name="Rectangle 11" width="17" height="16" rx="8" transform="translate(1472 309)" fill="#e9d5f5"/>
      <rect id="Rectangle_17" data-name="Rectangle 17" width="17" height="16" rx="8" transform="translate(1472 309)" fill="#e9d5f5"/>
      <rect id="Rectangle_22" data-name="Rectangle 22" width="17" height="16" rx="8" transform="translate(1472 309)" fill="#e9d5f5"/>
      <rect id="Rectangle_12" data-name="Rectangle 12" width="17" height="16" rx="8" transform="translate(1449 309)" fill="#e9d5f5"/>
      <rect id="Rectangle_18" data-name="Rectangle 18" width="17" height="16" rx="8" transform="translate(1449 309)" fill="#e9d5f5"/>
      <rect id="Rectangle_23" data-name="Rectangle 23" width="17" height="16" rx="8" transform="translate(1449 309)" fill="#e9d5f5"/>
      <rect id="Rectangle_13" data-name="Rectangle 13" width="17" height="16" rx="8" transform="translate(1426 309)" fill="#e9d5f5"/>
      <rect id="Rectangle_16" data-name="Rectangle 16" width="17" height="16" rx="8" transform="translate(1426 309)" fill="#e9d5f5"/>
      <rect id="Rectangle_21" data-name="Rectangle 21" width="17" height="16" rx="8" transform="translate(1426 309)" fill="#e9d5f5"/>
    </g>
    <g id="Group_4-2" data-name="Group 4" transform="translate(-1.5 195)">
      <circle id="Ellipse_1-2" data-name="Ellipse 1" cx="35" cy="35" r="35" transform="translate(1106 263)" fill="#1fc41f"/>
      <circle id="Ellipse_4-2" data-name="Ellipse 4" cx="35" cy="35" r="35" transform="translate(1106 263)" fill="#1fc41f"/>
      <circle id="Ellipse_2-2" data-name="Ellipse 2" cx="35" cy="35" r="35" transform="translate(1106 263)" fill="#1fc41f"/>
      <g id="Ellipse_5-2" data-name="Ellipse 5" transform="translate(1106 263)" fill="#fff" stroke="#d5d5d5" stroke-width="3">
        <circle cx="35" cy="35" r="35" stroke="none"/>
        <circle cx="35" cy="35" r="33.5" fill="none"/>
      </g>
      <g id="Ellipse_3-2" data-name="Ellipse 3" transform="translate(1106 263)" fill="none" stroke="#d5d5d5" stroke-width="1">
        <circle cx="35" cy="35" r="35" stroke="none"/>
        <circle cx="35" cy="35" r="34.5" fill="none"/>
      </g>
      <g id="Ellipse_6-2" data-name="Ellipse 6" transform="translate(1106 263)" fill="none" stroke="#d5d5d5" stroke-width="1">
        <circle cx="35" cy="35" r="35" stroke="none"/>
        <circle cx="35" cy="35" r="34.5" fill="none"/>
      </g>
      <path id="Path_2-2" data-name="Path 2" d="M1170.876,318l12.647,12.647,22.548-22.548" transform="translate(-47.474 -21.373)" fill="none" stroke="#fff" stroke-width="6"/>
      <path id="Path_3-2" data-name="Path 3" d="M1170.876,318l12.647,12.647,22.548-22.548" transform="translate(-47.474 -21.373)" fill="none" stroke="#fff" stroke-width="6"/>
      <path id="Path_4-2" data-name="Path 4" d="M1170.876,318l12.647,12.647,22.548-22.548" transform="translate(-47.474 -21.373)" fill="none" stroke="#fff" stroke-width="6"/>
      <rect id="Rectangle_8-2" data-name="Rectangle 8" width="253" height="19" rx="9.5" transform="translate(1236 276)" fill="#e9d5f5"/>
      <rect id="Rectangle_24-2" data-name="Rectangle 24" width="253" height="19" rx="9.5" transform="translate(1236 276)" fill="#e9d5f5"/>
      <rect id="Rectangle_14-2" data-name="Rectangle 14" width="253" height="19" rx="9.5" transform="translate(1236 276)" fill="#e9d5f5"/>
      <rect id="Rectangle_25-2" data-name="Rectangle 25" width="253" height="19" rx="9.5" transform="translate(1236 276)" fill="#e9d5f5"/>
      <rect id="Rectangle_19-2" data-name="Rectangle 19" width="253" height="19" rx="9.5" transform="translate(1236 276)" fill="#e9d5f5"/>
      <rect id="Rectangle_26-2" data-name="Rectangle 26" width="253" height="19" rx="9.5" transform="translate(1236 276)" fill="#f9d5a5"/>
      <rect id="Rectangle_10-2" data-name="Rectangle 10" width="63" height="16" rx="8" transform="translate(1236 309)" fill="#e9d5f5"/>
      <rect id="Rectangle_15-2" data-name="Rectangle 15" width="63" height="16" rx="8" transform="translate(1236 309)" fill="#e9d5f5"/>
      <rect id="Rectangle_20-2" data-name="Rectangle 20" width="63" height="16" rx="8" transform="translate(1236 309)" fill="#f9d5a5"/>
      <rect id="Rectangle_11-2" data-name="Rectangle 11" width="17" height="16" rx="8" transform="translate(1472 309)" fill="#e9d5f5"/>
      <rect id="Rectangle_17-2" data-name="Rectangle 17" width="17" height="16" rx="8" transform="translate(1472 309)" fill="#e9d5f5"/>
      <rect id="Rectangle_22-2" data-name="Rectangle 22" width="17" height="16" rx="8" transform="translate(1472 309)" fill="#f9d5a5"/>
      <rect id="Rectangle_12-2" data-name="Rectangle 12" width="17" height="16" rx="8" transform="translate(1449 309)" fill="#e9d5f5"/>
      <rect id="Rectangle_18-2" data-name="Rectangle 18" width="17" height="16" rx="8" transform="translate(1449 309)" fill="#e9d5f5"/>
      <rect id="Rectangle_23-2" data-name="Rectangle 23" width="17" height="16" rx="8" transform="translate(1449 309)" fill="#f9d5a5"/>
      <rect id="Rectangle_13-2" data-name="Rectangle 13" width="17" height="16" rx="8" transform="translate(1426 309)" fill="#e9d5f5"/>
      <rect id="Rectangle_16-2" data-name="Rectangle 16" width="17" height="16" rx="8" transform="translate(1426 309)" fill="#e9d5f5"/>
      <rect id="Rectangle_21-2" data-name="Rectangle 21" width="17" height="16" rx="8" transform="translate(1426 309)" fill="#f9d5a5"/>
    </g>
    <g id="Group_4-3" data-name="Group 4" transform="translate(-1.5 285)">
      <circle id="Ellipse_1-3" data-name="Ellipse 1" cx="35" cy="35" r="35" transform="translate(1106 263)" fill="#1fc41f"/>
      <circle id="Ellipse_4-3" data-name="Ellipse 4" cx="35" cy="35" r="35" transform="translate(1106 263)" fill="#1fc41f"/>
      <circle id="Ellipse_2-3" data-name="Ellipse 2" cx="35" cy="35" r="35" transform="translate(1106 263)" fill="#1fc41f"/>
      <circle id="Ellipse_5-3" data-name="Ellipse 5" cx="35" cy="35" r="35" transform="translate(1106 263)" fill="#1fc41f"/>
      <circle id="Ellipse_3-3" data-name="Ellipse 3" cx="35" cy="35" r="35" transform="translate(1106 263)" fill="#1fc41f"/>
      <g id="Ellipse_6-3" data-name="Ellipse 6" transform="translate(1106 263)" fill="#fff" stroke="#d5d5d5" stroke-width="3">
        <circle cx="35" cy="35" r="35" stroke="none"/>
        <circle cx="35" cy="35" r="33.5" fill="none"/>
      </g>
      <path id="Path_2-3" data-name="Path 2" d="M1170.876,318l12.647,12.647,22.548-22.548" transform="translate(-47.474 -21.373)" fill="none" stroke="#fff" stroke-width="6"/>
      <path id="Path_3-3" data-name="Path 3" d="M1170.876,318l12.647,12.647,22.548-22.548" transform="translate(-47.474 -21.373)" fill="none" stroke="#fff" stroke-width="6"/>
      <path id="Path_4-3" data-name="Path 4" d="M1170.876,318l12.647,12.647,22.548-22.548" transform="translate(-47.474 -21.373)" fill="none" stroke="#fff" stroke-width="6"/>
      <rect id="Rectangle_8-3" data-name="Rectangle 8" width="253" height="19" rx="9.5" transform="translate(1236 276)" fill="#e9d5f5"/>
      <rect id="Rectangle_24-3" data-name="Rectangle 24" width="253" height="19" rx="9.5" transform="translate(1236 276)" fill="#e9d5f5"/>
      <rect id="Rectangle_14-3" data-name="Rectangle 14" width="253" height="19" rx="9.5" transform="translate(1236 276)" fill="#e9d5f5"/>
      <rect id="Rectangle_25-3" data-name="Rectangle 25" width="253" height="19" rx="9.5" transform="translate(1236 276)" fill="#e9d5f5"/>
      <rect id="Rectangle_19-3" data-name="Rectangle 19" width="253" height="19" rx="9.5" transform="translate(1236 276)" fill="#e9d5f5"/>
      <rect id="Rectangle_26-3" data-name="Rectangle 26" width="253" height="19" rx="9.5" transform="translate(1236 276)" fill="#82ddcc"/>
      <rect id="Rectangle_10-3" data-name="Rectangle 10" width="63" height="16" rx="8" transform="translate(1236 309)" fill="#e9d5f5"/>
      <rect id="Rectangle_15-3" data-name="Rectangle 15" width="63" height="16" rx="8" transform="translate(1236 309)" fill="#e9d5f5"/>
      <rect id="Rectangle_20-3" data-name="Rectangle 20" width="63" height="16" rx="8" transform="translate(1236 309)" fill="#82ddcc"/>
      <rect id="Rectangle_11-3" data-name="Rectangle 11" width="17" height="16" rx="8" transform="translate(1472 309)" fill="#e9d5f5"/>
      <rect id="Rectangle_17-3" data-name="Rectangle 17" width="17" height="16" rx="8" transform="translate(1472 309)" fill="#e9d5f5"/>
      <rect id="Rectangle_22-3" data-name="Rectangle 22" width="17" height="16" rx="8" transform="translate(1472 309)" fill="#82ddcc"/>
      <rect id="Rectangle_12-3" data-name="Rectangle 12" width="17" height="16" rx="8" transform="translate(1449 309)" fill="#e9d5f5"/>
      <rect id="Rectangle_18-3" data-name="Rectangle 18" width="17" height="16" rx="8" transform="translate(1449 309)" fill="#e9d5f5"/>
      <rect id="Rectangle_23-3" data-name="Rectangle 23" width="17" height="16" rx="8" transform="translate(1449 309)" fill="#82ddcc"/>
      <rect id="Rectangle_13-3" data-name="Rectangle 13" width="17" height="16" rx="8" transform="translate(1426 309)" fill="#e9d5f5"/>
      <rect id="Rectangle_16-3" data-name="Rectangle 16" width="17" height="16" rx="8" transform="translate(1426 309)" fill="#e9d5f5"/>
      <rect id="Rectangle_21-3" data-name="Rectangle 21" width="17" height="16" rx="8" transform="translate(1426 309)" fill="#82ddcc"/>
    </g>
  </g>
</svg>
