<svg xmlns="http://www.w3.org/2000/svg" width="80" height="174" viewBox="0 0 80 174">
  <g id="Group_9" data-name="Group 9" transform="translate(-81 -1022)">
    <g id="Ellipse_7" data-name="Ellipse 7" transform="translate(81 1022)" fill="#fff" stroke="#707070" stroke-width="1">
      <circle cx="7" cy="7" r="7" stroke="none"/>
      <circle cx="7" cy="7" r="6.5" fill="none"/>
    </g>
    <g id="Ellipse_7-2" data-name="Ellipse 7" transform="translate(114 1022)" fill="#fff" stroke="#707070" stroke-width="1">
      <circle cx="7" cy="7" r="7" stroke="none"/>
      <circle cx="7" cy="7" r="6.5" fill="none"/>
    </g>
    <g id="Ellipse_7-3" data-name="Ellipse 7" transform="translate(147 1022)" fill="#fff" stroke="#707070" stroke-width="1">
      <circle cx="7" cy="7" r="7" stroke="none"/>
      <circle cx="7" cy="7" r="6.5" fill="none"/>
    </g>
    <g id="Ellipse_7-4" data-name="Ellipse 7" transform="translate(81 1062)" fill="#fff" stroke="#707070" stroke-width="1">
      <circle cx="7" cy="7" r="7" stroke="none"/>
      <circle cx="7" cy="7" r="6.5" fill="none"/>
    </g>
    <g id="Ellipse_7-5" data-name="Ellipse 7" transform="translate(114 1062)" fill="#fff" stroke="#707070" stroke-width="1">
      <circle cx="7" cy="7" r="7" stroke="none"/>
      <circle cx="7" cy="7" r="6.5" fill="none"/>
    </g>
    <g id="Ellipse_7-6" data-name="Ellipse 7" transform="translate(147 1062)" fill="#fff" stroke="#707070" stroke-width="1">
      <circle cx="7" cy="7" r="7" stroke="none"/>
      <circle cx="7" cy="7" r="6.5" fill="none"/>
    </g>
    <g id="Ellipse_7-7" data-name="Ellipse 7" transform="translate(81 1102)" fill="#fff" stroke="#707070" stroke-width="1">
      <circle cx="7" cy="7" r="7" stroke="none"/>
      <circle cx="7" cy="7" r="6.5" fill="none"/>
    </g>
    <g id="Ellipse_7-8" data-name="Ellipse 7" transform="translate(114 1102)" fill="#fff" stroke="#707070" stroke-width="1">
      <circle cx="7" cy="7" r="7" stroke="none"/>
      <circle cx="7" cy="7" r="6.5" fill="none"/>
    </g>
    <g id="Ellipse_7-9" data-name="Ellipse 7" transform="translate(147 1102)" fill="#fff" stroke="#707070" stroke-width="1">
      <circle cx="7" cy="7" r="7" stroke="none"/>
      <circle cx="7" cy="7" r="6.5" fill="none"/>
    </g>
    <g id="Ellipse_7-10" data-name="Ellipse 7" transform="translate(81 1142)" fill="#fff" stroke="#707070" stroke-width="1">
      <circle cx="7" cy="7" r="7" stroke="none"/>
      <circle cx="7" cy="7" r="6.5" fill="none"/>
    </g>
    <g id="Ellipse_7-11" data-name="Ellipse 7" transform="translate(114 1142)" fill="#fff" stroke="#707070" stroke-width="1">
      <circle cx="7" cy="7" r="7" stroke="none"/>
      <circle cx="7" cy="7" r="6.5" fill="none"/>
    </g>
    <g id="Ellipse_7-12" data-name="Ellipse 7" transform="translate(147 1142)" fill="#fff" stroke="#707070" stroke-width="1">
      <circle cx="7" cy="7" r="7" stroke="none"/>
      <circle cx="7" cy="7" r="6.5" fill="none"/>
    </g>
    <g id="Ellipse_7-13" data-name="Ellipse 7" transform="translate(81 1182)" fill="#fff" stroke="#707070" stroke-width="1">
      <circle cx="7" cy="7" r="7" stroke="none"/>
      <circle cx="7" cy="7" r="6.5" fill="none"/>
    </g>
    <g id="Ellipse_7-14" data-name="Ellipse 7" transform="translate(114 1182)" fill="#fff" stroke="#707070" stroke-width="1">
      <circle cx="7" cy="7" r="7" stroke="none"/>
      <circle cx="7" cy="7" r="6.5" fill="none"/>
    </g>
    <g id="Ellipse_7-15" data-name="Ellipse 7" transform="translate(147 1182)" fill="#fff" stroke="#707070" stroke-width="1">
      <circle cx="7" cy="7" r="7" stroke="none"/>
      <circle cx="7" cy="7" r="6.5" fill="none"/>
    </g>
  </g>
</svg>
